<svg xmlns="http://www.w3.org/2000/svg" width="500" height="416" viewBox="0 0 500 416" fill="none" role="img" aria-label="Skill proficiency bars">
<rect x="0.5" y="0.5" width="499" height="415" rx="10" fill="#0d1117" stroke="#30363d"/>
<text x="24" y="38" fill="#58a6ff" font-family="ui-sans-serif, system-ui, -apple-system, BlinkMacSystemFont, 'Segoe UI', sans-serif" font-size="17" font-weight="700">Proficiency</text>
<text x="476" y="38" text-anchor="end" fill="#8b949e" font-family="ui-sans-serif, system-ui, -apple-system, BlinkMacSystemFont, 'Segoe UI', sans-serif" font-size="12">self-assessed</text>
<linearGradient id="g0" x1="0" y1="0" x2="1" y2="0"><stop offset="0" stop-color="#3178C6" stop-opacity="0.85"/><stop offset="1" stop-color="#79c0ff"/></linearGradient>
<text x="24" y="80" fill="#c9d1d9" font-family="ui-sans-serif, system-ui, -apple-system, BlinkMacSystemFont, 'Segoe UI', sans-serif" font-size="12.5" font-weight="600">TypeScript</text>
<rect x="172" y="69" width="298" height="10" rx="5" fill="#21262d"/>
<rect x="172" y="69" width="274.2" height="10" rx="5" fill="url(#g0)"/>
<text x="476" y="80" text-anchor="end" fill="#8b949e" font-family="ui-sans-serif, system-ui, -apple-system, BlinkMacSystemFont, 'Segoe UI', sans-serif" font-size="11.5" font-weight="600">92%</text>
<linearGradient id="g1" x1="0" y1="0" x2="1" y2="0"><stop offset="0" stop-color="#61DAFB" stop-opacity="0.85"/><stop offset="1" stop-color="#79c0ff"/></linearGradient>
<text x="24" y="118" fill="#c9d1d9" font-family="ui-sans-serif, system-ui, -apple-system, BlinkMacSystemFont, 'Segoe UI', sans-serif" font-size="12.5" font-weight="600">React / Next.js</text>
<rect x="172" y="107" width="298" height="10" rx="5" fill="#21262d"/>
<rect x="172" y="107" width="262.2" height="10" rx="5" fill="url(#g1)"/>
<text x="476" y="118" text-anchor="end" fill="#8b949e" font-family="ui-sans-serif, system-ui, -apple-system, BlinkMacSystemFont, 'Segoe UI', sans-serif" font-size="11.5" font-weight="600">88%</text>
<linearGradient id="g2" x1="0" y1="0" x2="1" y2="0"><stop offset="0" stop-color="#339933" stop-opacity="0.85"/><stop offset="1" stop-color="#79c0ff"/></linearGradient>
<text x="24" y="156" fill="#c9d1d9" font-family="ui-sans-serif, system-ui, -apple-system, BlinkMacSystemFont, 'Segoe UI', sans-serif" font-size="12.5" font-weight="600">Node.js / Express</text>
<rect x="172" y="145" width="298" height="10" rx="5" fill="#21262d"/>
<rect x="172" y="145" width="244.4" height="10" rx="5" fill="url(#g2)"/>
<text x="476" y="156" text-anchor="end" fill="#8b949e" font-family="ui-sans-serif, system-ui, -apple-system, BlinkMacSystemFont, 'Segoe UI', sans-serif" font-size="11.5" font-weight="600">82%</text>
<linearGradient id="g3" x1="0" y1="0" x2="1" y2="0"><stop offset="0" stop-color="#3776AB" stop-opacity="0.85"/><stop offset="1" stop-color="#79c0ff"/></linearGradient>
<text x="24" y="194" fill="#c9d1d9" font-family="ui-sans-serif, system-ui, -apple-system, BlinkMacSystemFont, 'Segoe UI', sans-serif" font-size="12.5" font-weight="600">Python</text>
<rect x="172" y="183" width="298" height="10" rx="5" fill="#21262d"/>
<rect x="172" y="183" width="202.6" height="10" rx="5" fill="url(#g3)"/>
<text x="476" y="194" text-anchor="end" fill="#8b949e" font-family="ui-sans-serif, system-ui, -apple-system, BlinkMacSystemFont, 'Segoe UI', sans-serif" font-size="11.5" font-weight="600">68%</text>
<linearGradient id="g4" x1="0" y1="0" x2="1" y2="0"><stop offset="0" stop-color="#00ADD8" stop-opacity="0.85"/><stop offset="1" stop-color="#79c0ff"/></linearGradient>
<text x="24" y="232" fill="#c9d1d9" font-family="ui-sans-serif, system-ui, -apple-system, BlinkMacSystemFont, 'Segoe UI', sans-serif" font-size="12.5" font-weight="600">Go</text>
<rect x="172" y="221" width="298" height="10" rx="5" fill="#21262d"/>
<rect x="172" y="221" width="184.8" height="10" rx="5" fill="url(#g4)"/>
<text x="476" y="232" text-anchor="end" fill="#8b949e" font-family="ui-sans-serif, system-ui, -apple-system, BlinkMacSystemFont, 'Segoe UI', sans-serif" font-size="11.5" font-weight="600">62%</text>
<linearGradient id="g5" x1="0" y1="0" x2="1" y2="0"><stop offset="0" stop-color="#6DB33F" stop-opacity="0.85"/><stop offset="1" stop-color="#79c0ff"/></linearGradient>
<text x="24" y="270" fill="#c9d1d9" font-family="ui-sans-serif, system-ui, -apple-system, BlinkMacSystemFont, 'Segoe UI', sans-serif" font-size="12.5" font-weight="600">Java / Spring</text>
<rect x="172" y="259" width="298" height="10" rx="5" fill="#21262d"/>
<rect x="172" y="259" width="178.8" height="10" rx="5" fill="url(#g5)"/>
<text x="476" y="270" text-anchor="end" fill="#8b949e" font-family="ui-sans-serif, system-ui, -apple-system, BlinkMacSystemFont, 'Segoe UI', sans-serif" font-size="11.5" font-weight="600">60%</text>
<linearGradient id="g6" x1="0" y1="0" x2="1" y2="0"><stop offset="0" stop-color="#4479A1" stop-opacity="0.85"/><stop offset="1" stop-color="#79c0ff"/></linearGradient>
<text x="24" y="308" fill="#c9d1d9" font-family="ui-sans-serif, system-ui, -apple-system, BlinkMacSystemFont, 'Segoe UI', sans-serif" font-size="12.5" font-weight="600">SQL / NoSQL</text>
<rect x="172" y="297" width="298" height="10" rx="5" fill="#21262d"/>
<rect x="172" y="297" width="220.5" height="10" rx="5" fill="url(#g6)"/>
<text x="476" y="308" text-anchor="end" fill="#8b949e" font-family="ui-sans-serif, system-ui, -apple-system, BlinkMacSystemFont, 'Segoe UI', sans-serif" font-size="11.5" font-weight="600">74%</text>
<linearGradient id="g7" x1="0" y1="0" x2="1" y2="0"><stop offset="0" stop-color="#2496ED" stop-opacity="0.85"/><stop offset="1" stop-color="#79c0ff"/></linearGradient>
<text x="24" y="346" fill="#c9d1d9" font-family="ui-sans-serif, system-ui, -apple-system, BlinkMacSystemFont, 'Segoe UI', sans-serif" font-size="12.5" font-weight="600">Docker / CI-CD</text>
<rect x="172" y="335" width="298" height="10" rx="5" fill="#21262d"/>
<rect x="172" y="335" width="172.8" height="10" rx="5" fill="url(#g7)"/>
<text x="476" y="346" text-anchor="end" fill="#8b949e" font-family="ui-sans-serif, system-ui, -apple-system, BlinkMacSystemFont, 'Segoe UI', sans-serif" font-size="11.5" font-weight="600">58%</text>
<linearGradient id="g8" x1="0" y1="0" x2="1" y2="0"><stop offset="0" stop-color="#F24E1E" stop-opacity="0.85"/><stop offset="1" stop-color="#79c0ff"/></linearGradient>
<text x="24" y="384" fill="#c9d1d9" font-family="ui-sans-serif, system-ui, -apple-system, BlinkMacSystemFont, 'Segoe UI', sans-serif" font-size="12.5" font-weight="600">Figma / UI Design</text>
<rect x="172" y="373" width="298" height="10" rx="5" fill="#21262d"/>
<rect x="172" y="373" width="196.7" height="10" rx="5" fill="url(#g8)"/>
<text x="476" y="384" text-anchor="end" fill="#8b949e" font-family="ui-sans-serif, system-ui, -apple-system, BlinkMacSystemFont, 'Segoe UI', sans-serif" font-size="11.5" font-weight="600">66%</text>
</svg>