<svg xmlns="http://www.w3.org/2000/svg" width="500" height="440" viewBox="0 0 500 440" fill="none" role="img" aria-label="Skill radar chart">
<defs>
  <linearGradient id="rg" x1="0" y1="0" x2="1" y2="1">
    <stop offset="0" stop-color="#58a6ff"/><stop offset="1" stop-color="#79c0ff"/>
  </linearGradient>
</defs>
<rect x="0.5" y="0.5" width="499" height="439" rx="10" fill="#0d1117" stroke="#30363d"/>
<text x="24" y="40" fill="#58a6ff" font-family="ui-sans-serif, system-ui, -apple-system, BlinkMacSystemFont, 'Segoe UI', sans-serif" font-size="17" font-weight="700">Skill Radar</text>
<text x="476" y="40" text-anchor="end" fill="#8b949e" font-family="ui-sans-serif, system-ui, -apple-system, BlinkMacSystemFont, 'Segoe UI', sans-serif" font-size="12">proficiency by domain</text>
<polygon points="250.0,194.5 282.5,213.2 282.5,250.8 250.0,269.5 217.5,250.8 217.5,213.2" fill="none" stroke="#21262d" stroke-width="1"/>
<polygon points="250.0,157.0 315.0,194.5 315.0,269.5 250.0,307.0 185.0,269.5 185.0,194.5" fill="none" stroke="#21262d" stroke-width="1"/>
<polygon points="250.0,119.5 347.4,175.8 347.4,288.2 250.0,344.5 152.6,288.3 152.6,175.8" fill="none" stroke="#21262d" stroke-width="1"/>
<polygon points="250.0,82.0 379.9,157.0 379.9,307.0 250.0,382.0 120.1,307.0 120.1,157.0" fill="none" stroke="#21262d" stroke-width="1"/>
<line x1="250.0" y1="232" x2="250.0" y2="82.0" stroke="#21262d" stroke-width="1"/>
<text x="250.0" y="54.0" text-anchor="middle" fill="#c9d1d9" font-family="ui-sans-serif, system-ui, -apple-system, BlinkMacSystemFont, 'Segoe UI', sans-serif" font-size="12.5" font-weight="600">Frontend</text>
<text x="250.0" y="69.0" text-anchor="middle" fill="#8b949e" font-family="ui-sans-serif, system-ui, -apple-system, BlinkMacSystemFont, 'Segoe UI', sans-serif" font-size="11">90%</text>
<line x1="250.0" y1="232" x2="379.9" y2="157.0" stroke="#21262d" stroke-width="1"/>
<text x="402.4" y="142.0" text-anchor="start" fill="#c9d1d9" font-family="ui-sans-serif, system-ui, -apple-system, BlinkMacSystemFont, 'Segoe UI', sans-serif" font-size="12.5" font-weight="600">Backend</text>
<text x="402.4" y="157.0" text-anchor="start" fill="#8b949e" font-family="ui-sans-serif, system-ui, -apple-system, BlinkMacSystemFont, 'Segoe UI', sans-serif" font-size="11">82%</text>
<line x1="250.0" y1="232" x2="379.9" y2="307.0" stroke="#21262d" stroke-width="1"/>
<text x="402.4" y="332.0" text-anchor="start" fill="#c9d1d9" font-family="ui-sans-serif, system-ui, -apple-system, BlinkMacSystemFont, 'Segoe UI', sans-serif" font-size="12.5" font-weight="600">Database</text>
<text x="402.4" y="347.0" text-anchor="start" fill="#8b949e" font-family="ui-sans-serif, system-ui, -apple-system, BlinkMacSystemFont, 'Segoe UI', sans-serif" font-size="11">74%</text>
<line x1="250.0" y1="232" x2="250.0" y2="382.0" stroke="#21262d" stroke-width="1"/>
<text x="250.0" y="420.0" text-anchor="middle" fill="#c9d1d9" font-family="ui-sans-serif, system-ui, -apple-system, BlinkMacSystemFont, 'Segoe UI', sans-serif" font-size="12.5" font-weight="600">DevOps</text>
<text x="250.0" y="435.0" text-anchor="middle" fill="#8b949e" font-family="ui-sans-serif, system-ui, -apple-system, BlinkMacSystemFont, 'Segoe UI', sans-serif" font-size="11">60%</text>
<line x1="250.0" y1="232" x2="120.1" y2="307.0" stroke="#21262d" stroke-width="1"/>
<text x="97.6" y="332.0" text-anchor="end" fill="#c9d1d9" font-family="ui-sans-serif, system-ui, -apple-system, BlinkMacSystemFont, 'Segoe UI', sans-serif" font-size="12.5" font-weight="600">Design / UI</text>
<text x="97.6" y="347.0" text-anchor="end" fill="#8b949e" font-family="ui-sans-serif, system-ui, -apple-system, BlinkMacSystemFont, 'Segoe UI', sans-serif" font-size="11">68%</text>
<line x1="250.0" y1="232" x2="120.1" y2="157.0" stroke="#21262d" stroke-width="1"/>
<text x="97.6" y="142.0" text-anchor="end" fill="#c9d1d9" font-family="ui-sans-serif, system-ui, -apple-system, BlinkMacSystemFont, 'Segoe UI', sans-serif" font-size="12.5" font-weight="600">Architecture</text>
<text x="97.6" y="157.0" text-anchor="end" fill="#8b949e" font-family="ui-sans-serif, system-ui, -apple-system, BlinkMacSystemFont, 'Segoe UI', sans-serif" font-size="11">78%</text>
<polygon points="250.0,97.0 356.5,170.5 346.1,287.5 250.0,322.0 161.7,283.0 148.7,173.5" fill="#58a6ff" fill-opacity="0.18" stroke="url(#rg)" stroke-width="2.5" stroke-linejoin="round"/>
<circle cx="250.0" cy="97.0" r="3.5" fill="#0d1117" stroke="#79c0ff" stroke-width="2"/>
<circle cx="356.5" cy="170.5" r="3.5" fill="#0d1117" stroke="#79c0ff" stroke-width="2"/>
<circle cx="346.1" cy="287.5" r="3.5" fill="#0d1117" stroke="#79c0ff" stroke-width="2"/>
<circle cx="250.0" cy="322.0" r="3.5" fill="#0d1117" stroke="#79c0ff" stroke-width="2"/>
<circle cx="161.7" cy="283.0" r="3.5" fill="#0d1117" stroke="#79c0ff" stroke-width="2"/>
<circle cx="148.7" cy="173.5" r="3.5" fill="#0d1117" stroke="#79c0ff" stroke-width="2"/>
</svg>